<svg width="25" height="24" viewBox="0 0 25 24" fill="none" xmlns="http://www.w3.org/2000/svg">
<g id="u:arrow-right">
<path id="Vector" d="M18.5045 11.62C18.4569 11.4973 18.3855 11.3851 18.2945 11.29L13.2945 6.29C13.2012 6.19676 13.0905 6.1228 12.9687 6.07234C12.8469 6.02188 12.7163 5.99591 12.5845 5.99591C12.3182 5.99591 12.0628 6.1017 11.8745 6.29C11.7812 6.38324 11.7073 6.49393 11.6568 6.61575C11.6064 6.73758 11.5804 6.86814 11.5804 7C11.5804 7.2663 11.6862 7.5217 11.8745 7.71L15.1745 11H7.58447C7.31926 11 7.0649 11.1054 6.87737 11.2929C6.68983 11.4804 6.58447 11.7348 6.58447 12C6.58447 12.2652 6.68983 12.5196 6.87737 12.7071C7.0649 12.8946 7.31926 13 7.58447 13H15.1745L11.8745 16.29C11.7807 16.383 11.7064 16.4936 11.6556 16.6154C11.6048 16.7373 11.5787 16.868 11.5787 17C11.5787 17.132 11.6048 17.2627 11.6556 17.3846C11.7064 17.5064 11.7807 17.617 11.8745 17.71C11.9674 17.8037 12.078 17.8781 12.1999 17.9289C12.3218 17.9797 12.4525 18.0058 12.5845 18.0058C12.7165 18.0058 12.8472 17.9797 12.969 17.9289C13.0909 17.8781 13.2015 17.8037 13.2945 17.71L18.2945 12.71C18.3855 12.6149 18.4569 12.5028 18.5045 12.38C18.6045 12.1365 18.6045 11.8635 18.5045 11.62Z" fill="white"/>
</g>
</svg>
