<svg width="18" height="18" viewBox="0 0 18 18" fill="none" xmlns="http://www.w3.org/2000/svg">
<g id="u:shopping-bag">
<path id="Vector" d="M14.25 5.25H12V4.5C12 3.70435 11.6839 2.94129 11.1213 2.37868C10.5587 1.81607 9.79565 1.5 9 1.5C8.20435 1.5 7.44129 1.81607 6.87868 2.37868C6.31607 2.94129 6 3.70435 6 4.5V5.25H3.75C3.55109 5.25 3.36032 5.32902 3.21967 5.46967C3.07902 5.61032 3 5.80109 3 6V14.25C3 14.8467 3.23705 15.419 3.65901 15.841C4.08097 16.2629 4.65326 16.5 5.25 16.5H12.75C13.3467 16.5 13.919 16.2629 14.341 15.841C14.7629 15.419 15 14.8467 15 14.25V6C15 5.80109 14.921 5.61032 14.7803 5.46967C14.6397 5.32902 14.4489 5.25 14.25 5.25ZM7.5 4.5C7.5 4.10218 7.65804 3.72064 7.93934 3.43934C8.22064 3.15804 8.60218 3 9 3C9.39782 3 9.77936 3.15804 10.0607 3.43934C10.342 3.72064 10.5 4.10218 10.5 4.5V5.25H7.5V4.5ZM13.5 14.25C13.5 14.4489 13.421 14.6397 13.2803 14.7803C13.1397 14.921 12.9489 15 12.75 15H5.25C5.05109 15 4.86032 14.921 4.71967 14.7803C4.57902 14.6397 4.5 14.4489 4.5 14.25V6.75H6V7.5C6 7.69891 6.07902 7.88968 6.21967 8.03033C6.36032 8.17098 6.55109 8.25 6.75 8.25C6.94891 8.25 7.13968 8.17098 7.28033 8.03033C7.42098 7.88968 7.5 7.69891 7.5 7.5V6.75H10.5V7.5C10.5 7.69891 10.579 7.88968 10.7197 8.03033C10.8603 8.17098 11.0511 8.25 11.25 8.25C11.4489 8.25 11.6397 8.17098 11.7803 8.03033C11.921 7.88968 12 7.69891 12 7.5V6.75H13.5V14.25Z" fill="white"/>
</g>
</svg>
