<svg width="14" height="16" viewBox="0 0 14 16" fill="none" xmlns="http://www.w3.org/2000/svg">
<g id="01 align center">
<path id="Vector" d="M13.6663 2.66666H10.333V1.33333C10.333 0.979708 10.1925 0.640569 9.94248 0.390521C9.69244 0.140472 9.3533 -3.8147e-06 8.99967 -3.8147e-06L4.99967 -3.8147e-06C4.64605 -3.8147e-06 4.30691 0.140472 4.05687 0.390521C3.80682 0.640569 3.66634 0.979708 3.66634 1.33333V2.66666H0.333008V4H1.66634V14C1.66634 14.5304 1.87705 15.0391 2.25213 15.4142C2.6272 15.7893 3.13591 16 3.66634 16H10.333C10.8634 16 11.3721 15.7893 11.7472 15.4142C12.1223 15.0391 12.333 14.5304 12.333 14V4H13.6663V2.66666ZM4.99967 1.33333H8.99967V2.66666H4.99967V1.33333ZM10.9997 14C10.9997 14.1768 10.9294 14.3464 10.8044 14.4714C10.6794 14.5964 10.5098 14.6667 10.333 14.6667H3.66634C3.48953 14.6667 3.31996 14.5964 3.19494 14.4714C3.06991 14.3464 2.99967 14.1768 2.99967 14V4H10.9997V14Z" fill="#424242"/>
<path id="Vector_2" d="M6.33333 6.66626H5V11.9996H6.33333V6.66626Z" fill="#424242"/>
<path id="Vector_3" d="M8.99936 6.66626H7.66602V11.9996H8.99936V6.66626Z" fill="#424242"/>
</g>
</svg>
